<svg xmlns="http://www.w3.org/2000/svg" viewBox="0 0 20 20"><path d="M15.07,2.25a.33.33,0,0,1,.33.33V6.72h1.25a2.11,2.11,0,0,1,0,4.21H15.4v4.14a.33.33,0,0,1-.33.33H10.93v1.25a2.11,2.11,0,0,1-4.21,0V15.4H2.58a.33.33,0,0,1-.33-.33v-3A3.51,3.51,0,0,0,4.49,8.82,3.48,3.48,0,0,0,2.25,5.57v-3a.33.33,0,0,1,.33-.33H5.34a3.49,3.49,0,0,0,7,0h2.76m0-1.25H10.75A2.24,2.24,0,1,1,6.9,1H2.58A1.58,1.58,0,0,0,1,2.58v4a2.24,2.24,0,1,1,0,4.47v4a1.58,1.58,0,0,0,1.58,1.58H5.47a3.36,3.36,0,0,0,6.71,0h2.89a1.58,1.58,0,0,0,1.58-1.58V12.18a3.36,3.36,0,0,0,0-6.71V2.58A1.58,1.58,0,0,0,15.07,1Z"/></svg>