<?xml version="1.0" ?>
<!-- Uploaded to: SVG Repo, www.svgrepo.com, Generator: SVG Repo Mixer Tools -->
<svg width="800px" height="800px" viewBox="0 0 32 32" xmlns="http://www.w3.org/2000/svg">
<defs>
<style>.cls-1{fill:#231f20;}</style>
</defs>
<g id="show">
<path class="cls-1" d="M4,17a1,1,0,0,1-.87-1.5C3.31,15.2,7.52,8,16,8s12.69,7.2,12.87,7.5a1,1,0,1,1-1.74,1C27.1,16.43,23.3,10,16,10S4.91,16.43,4.87,16.5A1,1,0,0,1,4,17Z"/>
<path class="cls-1" d="M16,24C7.52,24,3.31,16.8,3.13,16.5a1,1,0,0,1,1.74-1C4.9,15.57,8.7,22,16,22s11.09-6.43,11.13-6.5a1,1,0,0,1,1.74,1C28.69,16.8,24.48,24,16,24Z"/>
<path class="cls-1" d="M16,18a2,2,0,1,1,2-2A2,2,0,0,1,16,18Zm0-2h0Zm0,0h0Zm0,0h0Zm0,0h0Zm0,0h0Zm0,0h0Zm0,0h0Zm0,0h0Z"/>
</g>
</svg>