<?xml version="1.0" encoding="utf-8"?>
<!-- Generator: Adobe Illustrator 24.1.2, SVG Export Plug-In . SVG Version: 6.00 Build 0)  -->
<svg version="1.1" id="Слой_1" xmlns="http://www.w3.org/2000/svg" xmlns:xlink="http://www.w3.org/1999/xlink" x="0px" y="0px"
	 viewBox="0 0 800 800" style="enable-background:new 0 0 800 800;" xml:space="preserve">
<path d="M246,246.8c-18.2,0-33,14.8-33,33c0,18.2,14.8,33,33,33V246.8z M554,312.8c18.2,0,33-14.8,33-33c0-18.2-14.8-33-33-33V312.8
	z M284.5,359.3c-18.2,0-33,14.8-33,33c0,18.2,14.8,33,33,33V359.3z M515.5,425.3c18.2,0,33-14.8,33-33c0-18.2-14.8-33-33-33V425.3z
	 M253.2,92V59l-0.2,0L253.2,92z M546.9,92l0.3-33h-0.3V92z M708,255.6l-33-0.2v0.2H708z M708,454.1h-33v0.2L708,454.1z M661.3,569.3
	l-23.5-23.2l0,0L661.3,569.3z M546.8,617.7v33h0.2L546.8,617.7z M253.2,617.7v-33c-5.6,0-11.2,1.5-16.1,4.2L253.2,617.7z M92,708H59
	c0,11.7,6.2,22.5,16.3,28.5c10.1,5.9,22.6,6,32.8,0.3L92,708z M92,255.6h33l0-0.2L92,255.6z M138.7,140.4l-23.5-23.2l0,0
	L138.7,140.4z M246,312.8h308v-66H246V312.8z M284.5,425.3h231v-66h-231V425.3z M253.2,125h293.7V59H253.2V125z M546.6,125
	c71.4,0.5,128.9,58.9,128.4,130.3l66,0.5c0.8-107.9-86-196-193.9-196.8L546.6,125z M675,255.6v198.6h66V255.6H675z M675,454.4
	c0.3,34.3-13.1,67.3-37.2,91.7l47,46.3c36.4-36.9,56.6-86.7,56.2-138.6L675,454.4z M637.8,546.1c-24.1,24.4-56.9,38.3-91.2,38.6
	l0.5,66c51.8-0.4,101.4-21.3,137.7-58.2L637.8,546.1z M546.8,584.7H253.2v66h293.6V584.7z M237,588.9L75.9,679.2l32.3,57.6
	l161.2-90.3L237,588.9z M125,708V255.6H59V708H125z M125,255.3c-0.3-34.3,13.1-67.3,37.2-91.7l-47-46.3
	C78.8,154.1,58.6,204,59,255.8L125,255.3z M162.2,163.6c24.1-24.4,56.9-38.3,91.2-38.6l-0.5-66c-51.8,0.4-101.4,21.3-137.7,58.2
	L162.2,163.6z"/>
</svg>
