<?xml version="1.0" encoding="utf-8"?>
<!-- Generator: Adobe Illustrator 24.1.2, SVG Export Plug-In . SVG Version: 6.00 Build 0)  -->
<svg version="1.1" id="Слой_1" xmlns="http://www.w3.org/2000/svg" xmlns:xlink="http://www.w3.org/1999/xlink" x="0px" y="0px"
	 viewBox="0 0 800 800" style="enable-background:new 0 0 800 800;" xml:space="preserve">
<style type="text/css">
	.st0{fill-rule:evenodd;clip-rule:evenodd;fill:none;stroke:#000000;stroke-width:60;stroke-miterlimit:10;}
</style>
<path class="st0" d="M646.7,657.4h-503c-43.5,0-78.7-35.2-78.7-78.7v-366c0-43.5,35.2-78.7,78.7-78.7h503
	c43.5,0,78.7,35.2,78.7,78.7v366C725.4,622.2,690.2,657.4,646.7,657.4z"/>
<g>
	<path d="M624.8,223.9H181.5c-15.7,0-28.5,12.7-28.5,28.5v1.9c0,15.7,12.7,28.5,28.5,28.5h443.3c15.7,0,28.5-12.7,28.5-28.5v-1.9
		C653.3,236.6,640.5,223.9,624.8,223.9L624.8,223.9z"/>
</g>
<g>
	<path d="M488.7,321.9H177.2c-13.3,0-24.1,10.8-24.1,24.1v10.5c0,13.3,10.8,24.1,24.1,24.1h311.5c13.3,0,24.1-10.8,24.1-24.1V346
		C512.8,332.7,502,321.9,488.7,321.9L488.7,321.9z"/>
</g>
<path d="M224.4,578.2c-12.5,0-26.2-0.3-39.4-1.1c-9.2-0.6-17.6-5.8-22.2-13.8c-4.7-8-5-17.8-1-26.1c11.7-24.1,38-64.3,39.1-66
	c5.1-7.8,13.7-12.5,23-12.6c9.3-0.1,18,4.4,23.2,12.1l43.2,62.9c5.7,8.3,6.5,19,2,28c-4.4,9-13.4,14.9-23.4,15.5
	C267.7,577.2,248.5,578.2,224.4,578.2z"/>
<path d="M411.4,578.2c-9.2,0-17.7-4.5-22.9-12.1l-43.2-62.9c-5.7-8.3-6.5-19-2-28s13.4-14.9,23.4-15.5c1.8-0.1,45.3-2.5,83.8,0
	c9.2,0.6,17.6,5.8,22.2,13.8c4.7,8,5,17.8,1,26.1c-11.7,24.1-38,64.3-39.1,66c-5.1,7.8-13.7,12.5-23,12.6
	C411.6,578.2,411.5,578.2,411.4,578.2z"/>
</svg>
