<?xml version="1.0" encoding="utf-8"?>
<!-- Generator: Adobe Illustrator 24.1.2, SVG Export Plug-In . SVG Version: 6.00 Build 0)  -->
<svg version="1.1" id="Слой_1" xmlns="http://www.w3.org/2000/svg" xmlns:xlink="http://www.w3.org/1999/xlink" x="0px" y="0px"
	 viewBox="0 0 20 20" style="enable-background:new 0 0 20 20;" xml:space="preserve">
<path d="M4.9,19.1c-0.7,0-1.3-0.6-1.3-1.3V3.6c0-0.9,0.8-1.7,1.7-1.7h9.4c0.9,0,1.7,0.8,1.7,1.7v14.2c0,0.7-0.6,1.3-1.3,1.3
	c-0.2,0-0.5-0.1-0.7-0.2L10,16.1l-4.5,2.8C5.3,19,5.1,19.1,4.9,19.1L4.9,19.1z M5.3,3.6C5.3,3.6,5.3,3.6,5.3,3.6l0,13.5l4.7-3l4.7,3
	V3.6L5.3,3.6z"/>
</svg>
