<?xml version="1.0" encoding="utf-8"?>
<!-- Generator: Adobe Illustrator 24.1.2, SVG Export Plug-In . SVG Version: 6.00 Build 0)  -->
<svg version="1.1" id="Слой_1" xmlns="http://www.w3.org/2000/svg" xmlns:xlink="http://www.w3.org/1999/xlink" x="0px" y="0px"
	 viewBox="0 0 20 20" style="enable-background:new 0 0 20 20;" xml:space="preserve">
<path d="M8.9,19.8c-1.8,0-3.3-1.3-3.5-3.1H2.8c-1,0-1.8-0.8-1.8-1.8V11c0-0.1,0-0.2,0.1-0.2c0.1-0.1,0.1-0.1,0.2-0.1
	c0,0,0.1,0,0.1,0l0.1,0c0.5,0,1-0.3,1.3-0.6s0.5-0.9,0.5-1.4C3.2,7.8,2.4,7,1.4,7c0,0-0.1,0-0.1,0C1.2,7,1.1,7,1.1,6.9
	C1,6.9,1,6.8,1,6.7V2.8C1,1.8,1.8,1,2.8,1H7C7.1,1,7.2,1,7.3,1.1c0.1,0.1,0.1,0.2,0,0.3C6.9,2,6.9,2.8,7.3,3.3
	c0.3,0.6,0.9,0.9,1.6,0.9c0.3,0,0.7-0.1,1-0.3c0.9-0.5,1.2-1.7,0.6-2.6c-0.1-0.1-0.1-0.2,0-0.3C10.5,1,10.6,1,10.7,1H15
	C15,1,15,1,15,1c1,0.1,1.7,0.9,1.7,1.8v2.5c1.7,0.2,3,1.6,3.1,3.3c0.1,1.9-1.3,3.5-3.1,3.7v2.5c0,1-0.8,1.8-1.8,1.8h-2.5
	c-0.2,1.7-1.6,3-3.3,3.1C9,19.8,8.9,19.8,8.9,19.8z M2.8,14.9l4,0c0.2,0,0.3,0.1,0.3,0.3v1.2c0.1,0.8,0.8,1.5,1.6,1.6l0.1,0
	c0.9,0,1.7-0.7,1.7-1.6l0-1.2c0-0.2,0.1-0.3,0.3-0.3h4l0-4c0-0.2,0.1-0.3,0.3-0.3h1.2c0.8-0.1,1.5-0.8,1.6-1.6
	c0-0.5-0.1-0.9-0.4-1.3s-0.7-0.6-1.2-0.6l-1.2,0C15.1,7.1,15,7,15,6.8v-4c0,0-0.1,0-0.1,0h-2.3c-0.2,1.9-1.7,3.4-3.7,3.4
	c-1.9,0-3.5-1.5-3.7-3.4H2.8c0,0,0,0,0,0v2.7C4.1,6.1,5,7.4,5,8.9c0,1.5-0.9,2.8-2.2,3.4V14.9z"/>
</svg>
