<?xml version="1.0" encoding="utf-8"?>
<!-- Generator: Adobe Illustrator 24.1.2, SVG Export Plug-In . SVG Version: 6.00 Build 0)  -->
<svg version="1.1" id="Слой_1" xmlns="http://www.w3.org/2000/svg" xmlns:xlink="http://www.w3.org/1999/xlink" x="0px" y="0px"
	 viewBox="0 0 16 16" style="enable-background:new 0 0 16 16;" xml:space="preserve">
<path d="M9.1,15H6.9c-1,0-1.7-0.8-1.7-1.8V8.9H2.9c-0.4,0-0.8-0.2-1.1-0.5C1.3,7.8,1.3,6.9,1.9,6.3l4.7-4.7c0.8-0.8,2-0.8,2.8,0
	l4.7,4.7c0.3,0.3,0.5,0.7,0.5,1.1c0,0.8-0.7,1.5-1.5,1.4h-2.2v4.4C10.8,14.2,10,15,9.1,15z M5.8,7.7h0.6v5.6c0,0.3,0.2,0.5,0.5,0.5
	h2.1c0.3,0,0.5-0.2,0.5-0.5V7.7h3.5c0.2,0,0.3-0.1,0.3-0.3c0-0.1,0-0.2-0.1-0.2l0,0L8.6,2.4c-0.3-0.3-0.8-0.3-1.1,0L2.7,7.2
	C2.6,7.2,2.6,7.3,2.6,7.4s0,0.1,0.1,0.2c0.1,0.1,0.1,0.1,0.2,0.1L5.8,7.7z"/>
</svg>
