<svg xmlns="http://www.w3.org/2000/svg" viewBox="0 0 16 16"><polygon points="6.34 13.21 3.33 9.37 2.46 10.07 5.35 13.73 6.34 13.21" style="fill:currentColor;stroke:none;stroke-miterlimit:10"/><polygon points="4.11 13.02 3.11 11.75 0.76 13.47 1.7 14.55 4.11 13.02" style="fill:currentColor;stroke:none;stroke-miterlimit:10"/><path d="M5.67,9.62l-.8.66,1,1.32s.54-.31,1.31-.8A12,12,0,0,1,5.67,9.62Z" style="fill:currentColor;stroke:none;stroke-miterlimit:10"/><path d="M10.93,3.83A19.94,19.94,0,0,1,8.52,7.08c.57.52,1.29,1.08,1.8,1.46a11.2,11.2,0,0,0,1-1C14.21,4.3,14.7,2.11,14.7,2.11Z" style="fill:currentColor;stroke:none;stroke-miterlimit:10"/><polygon points="9.23 13.59 12.52 9.01 13.53 9.81 10.36 14.19 9.23 13.59" style="fill:currentColor;stroke:none;stroke-miterlimit:10"/><polygon points="11.61 12.82 12.66 11.36 15.26 13.26 14.28 14.52 11.61 12.82" style="fill:currentColor;stroke:none;stroke-miterlimit:10"/><path d="M11.09,9.83A43.49,43.49,0,0,1,7.38,6.71,20.23,20.23,0,0,1,4.52,2.83,37,37,0,0,0,.73,1.33S.79,3.41,4.11,7.09A23.67,23.67,0,0,0,9.88,11.4C10.28,10.87,10.69,10.34,11.09,9.83Z" style="fill:currentColor"/><path d="M11.09,9.83A43.49,43.49,0,0,1,7.38,6.71,20.23,20.23,0,0,1,4.52,2.83,37,37,0,0,0,.73,1.33S.79,3.41,4.11,7.09A23.67,23.67,0,0,0,9.88,11.4C10.28,10.87,10.69,10.34,11.09,9.83Z" style="fill:none;stroke:none;stroke-miterlimit:10"/></svg>