<svg xmlns="http://www.w3.org/2000/svg" viewBox="0 0 16 16">
  <circle cx="5.28" cy="8.67" r="1" style="fill: currentColor"/>
  <circle cx="9.28" cy="8.67" r="1" style="fill: currentColor"/>
  <circle cx="12.26" cy="2.08" r="1.32" style="fill: currentColor"/>
  <path d="M7.55,5.08c.09-2.83,3-3.59,4-3" style="fill: none;stroke: currentColor;stroke-miterlimit: 10"/>
  <path d="M4.92,11.7s3,1,5,0" style="fill: blue;stroke: currentColor;stroke-miterlimit: 10"/>
  <path d="M7.72,5c3.31,0,6,2,6,4.5S11,14,7.72,14s-6-2-6-4.5S4.41,5,7.72,5m0-.5c-3.59,0-6.5,2.24-6.5,5s2.91,5,6.5,5,6.5-2.24,6.5-5-2.91-5-6.5-5Z" style="fill: currentColor"/>
  <path d="M10.85,5.5A1.56,1.56,0,0,1,13,5.31a1.34,1.34,0,0,1,.24,1.89" style="fill: none;stroke: currentColor;stroke-miterlimit: 10;stroke-width: 0.5px"/>
  <path d="M2.18,7a1.55,1.55,0,0,1,.53-2,1.33,1.33,0,0,1,1.86.4" style="fill: none;stroke: currentColor;stroke-miterlimit: 10;stroke-width: 0.5px"/>
</svg>
